<?xml version="1.0" standalone="no"?>
<!DOCTYPE svg PUBLIC "-//W3C//DTD SVG 20010904//EN"
 "http://www.w3.org/TR/2001/REC-SVG-20010904/DTD/svg10.dtd">
<svg version="1.0" xmlns="http://www.w3.org/2000/svg"
 width="1024.000000pt" height="347.000000pt" viewBox="0 0 1024.000000 347.000000"
 preserveAspectRatio="xMidYMid meet">

<g transform="translate(0.000000,347.000000) scale(0.100000,-0.100000)"
fill="#000000" stroke="none">
<path d="M2714 3348 c-16 -13 -72 -61 -124 -108 -53 -47 -156 -139 -230 -205
-598 -533 -898 -806 -904 -820 -3 -9 -6 -464 -6 -1010 l0 -993 31 -26 31 -26
1250 0 1250 0 29 29 29 29 0 995 0 995 -27 28 c-28 29 -246 227 -848 769 -176
159 -339 306 -362 327 -49 44 -78 48 -119 16z m283 -340 c130 -117 396 -357
592 -533 l356 -320 3 -938 2 -937 -135 0 -135 0 0 865 c0 852 0 865 -20 885
-19 19 -33 20 -518 20 -548 0 -535 1 -535 -60 0 -61 -9 -60 490 -60 l453 0 0
-215 0 -215 -459 0 c-506 0 -485 3 -483 -63 2 -58 -6 -57 489 -57 l453 0 0
-215 0 -215 -453 0 c-499 0 -490 1 -490 -60 0 -61 -9 -60 490 -60 l453 0 0
-275 0 -275 -985 0 -985 0 0 943 0 942 168 151 c92 83 354 317 582 519 228
203 417 373 418 377 2 4 6 8 8 8 2 0 110 -96 241 -212z"/>
<path d="M2195 1973 l-133 -138 -65 63 c-70 66 -101 77 -130 44 -36 -39 -23
-69 72 -165 126 -129 115 -132 313 72 140 143 158 165 158 195 0 19 -8 40 -18
49 -39 35 -59 23 -197 -120z"/>
<path d="M2190 1435 l-136 -135 -59 60 c-64 65 -98 76 -128 42 -36 -40 -23
-70 71 -164 70 -70 94 -88 117 -88 24 0 57 28 192 162 142 141 163 166 163
194 0 17 -8 38 -18 47 -39 35 -60 23 -202 -118z"/>
<path d="M2187 887 l-138 -132 -56 57 c-64 65 -100 75 -127 36 -29 -41 -19
-62 67 -151 85 -87 114 -105 143 -89 9 5 88 81 175 168 167 166 182 190 143
228 -36 36 -63 21 -207 -117z"/>
<path d="M4680 2135 l0 -455 70 0 70 0 0 200 0 200 220 0 220 0 0 -200 0 -200
70 0 70 0 0 455 0 455 -70 0 -70 0 0 -190 0 -190 -220 0 -220 0 0 190 0 190
-70 0 -70 0 0 -455z"/>
<path d="M5734 2337 c-83 -28 -147 -87 -187 -174 -32 -69 -32 -227 0 -295 27
-59 96 -134 148 -161 55 -28 182 -35 257 -13 107 31 185 127 208 256 29 159
-37 303 -167 366 -67 33 -191 43 -259 21z m167 -108 c101 -34 152 -160 118
-293 -44 -174 -267 -200 -340 -41 -25 55 -25 175 0 230 43 93 131 134 222 104z"/>
<path d="M6505 2331 c-40 -18 -88 -63 -98 -91 -4 -10 -6 -8 -7 8 -2 12 -4 27
-5 32 -1 6 -3 19 -4 30 -1 18 -8 20 -61 20 l-60 0 0 -320 0 -320 64 0 65 0 3
213 c3 236 11 270 72 309 42 26 117 20 151 -12 39 -36 45 -79 45 -302 l0 -208
65 0 65 0 0 210 c0 233 5 257 59 303 38 32 94 36 142 11 53 -27 59 -59 59
-304 l0 -220 68 0 67 0 -5 262 c-4 219 -8 268 -22 293 -38 69 -105 105 -195
105 -74 -1 -129 -25 -176 -80 -20 -24 -37 -38 -37 -31 0 26 -44 74 -84 92 -52
24 -120 24 -171 0z"/>
<path d="M7493 2333 c-60 -21 -137 -94 -170 -161 -25 -51 -28 -68 -28 -157 0
-116 20 -173 83 -238 66 -69 114 -90 213 -95 112 -6 176 14 233 72 41 41 74
101 62 113 -3 3 -31 8 -61 11 -55 4 -57 4 -90 -35 -61 -71 -162 -78 -236 -16
-34 29 -68 94 -69 131 l0 22 235 0 235 0 0 49 c0 27 -9 79 -21 116 -26 85 -97
162 -173 188 -60 21 -156 21 -213 0z m204 -121 c31 -22 55 -63 67 -114 l6 -28
-170 0 c-93 0 -170 4 -170 9 0 45 43 110 95 143 41 26 129 21 172 -10z"/>
<path d="M7600 1238 l0 -68 65 0 65 0 0 68 0 67 -65 0 -65 0 0 -67z"/>
<path d="M4835 1287 c-112 -37 -196 -114 -237 -215 -19 -48 -23 -75 -23 -177
0 -146 20 -206 95 -288 121 -132 306 -164 469 -80 147 75 206 192 199 391 -3
95 -7 115 -35 174 -37 79 -94 137 -171 175 -49 24 -71 28 -157 30 -63 2 -115
-2 -140 -10z m242 -125 c96 -49 138 -141 131 -290 -6 -135 -45 -209 -132 -254
-129 -66 -287 -9 -347 125 -33 72 -34 229 -3 298 28 61 87 116 143 134 61 20
155 13 208 -13z"/>
<path d="M5662 1069 c-18 -6 -51 -28 -72 -51 l-40 -40 0 46 0 46 -55 0 -55 0
0 -284 0 -284 60 -4 60 -3 0 175 c0 147 3 181 18 209 25 50 63 74 127 79 61 5
61 6 49 85 -6 32 -10 37 -33 36 -14 0 -41 -5 -59 -10z"/>
<path d="M5940 1067 c-52 -17 -114 -84 -136 -148 -21 -64 -24 -176 -5 -234 36
-109 122 -175 229 -175 72 0 127 23 162 67 l21 28 -4 -67 c-8 -112 -55 -168
-149 -176 -44 -3 -59 0 -88 20 -19 13 -37 34 -40 48 -5 23 -11 25 -68 28 -57
3 -62 1 -62 -18 0 -28 33 -90 62 -116 52 -48 88 -59 188 -59 108 0 154 17 208
79 56 64 62 107 62 428 l0 288 -61 0 -61 0 4 -35 c2 -19 3 -35 2 -35 0 0 -18
16 -38 35 -56 52 -142 68 -226 42z m186 -118 c99 -47 115 -222 29 -298 -107
-93 -255 -13 -255 139 0 137 111 215 226 159z"/>
<path d="M6556 1064 c-77 -28 -121 -74 -137 -141 l-7 -33 54 0 c48 0 56 3 64
24 16 44 57 66 121 66 50 0 63 -4 89 -27 16 -16 33 -42 36 -59 6 -29 3 -33
-27 -42 -19 -6 -70 -16 -114 -22 -151 -20 -203 -47 -225 -117 -41 -122 45
-223 190 -223 69 0 142 27 163 61 15 24 27 24 27 0 0 -42 11 -51 59 -51 l46 0
-3 197 c-2 109 -7 215 -13 236 -29 110 -196 178 -323 131z m224 -332 c0 -107
-126 -186 -220 -137 -48 25 -53 102 -8 126 16 9 129 33 221 48 4 0 7 -16 7
-37z"/>
<path d="M7231 1073 c-13 -3 -43 -24 -67 -49 l-44 -43 0 39 0 40 -55 0 -55 0
0 -280 0 -280 60 0 60 0 0 175 c0 192 7 225 55 263 39 31 90 38 132 18 56 -26
63 -58 63 -273 l0 -188 61 3 61 4 -4 221 c-3 181 -6 227 -20 252 -45 83 -135
119 -247 98z"/>
<path d="M8033 1072 l-223 -2 0 -50 0 -50 156 0 156 0 -28 -37 c-16 -21 -86
-109 -156 -195 -117 -143 -128 -160 -128 -197 l0 -41 230 0 230 0 0 45 0 44
-155 3 -155 3 150 188 151 188 -3 52 -3 52 -222 -3z"/>
<path d="M8520 1071 c-121 -40 -200 -152 -200 -286 0 -90 25 -150 88 -215 47
-48 68 -61 116 -75 124 -36 254 13 306 115 l19 38 -31 6 c-60 12 -85 7 -103
-20 -19 -29 -71 -54 -112 -54 -73 1 -144 63 -159 139 l-6 31 212 0 212 0 -7
53 c-15 122 -66 207 -148 249 -45 22 -145 33 -187 19z m167 -124 c13 -13 30
-41 38 -63 l13 -39 -146 -5 c-81 -3 -148 -2 -150 2 -7 16 38 97 62 113 59 39
140 35 183 -8z"/>
<path d="M9144 1061 c-22 -10 -53 -34 -67 -52 l-27 -34 0 43 0 42 -55 0 -55 0
0 -282 0 -283 55 1 55 2 3 180 c2 165 4 183 23 208 34 46 70 67 123 72 l51 5
0 58 0 59 -32 0 c-18 0 -51 -9 -74 -19z"/>
<path d="M7607 783 c1 -153 5 -279 8 -280 3 -2 28 -3 55 -3 l50 0 0 280 0 280
-57 0 -58 0 2 -277z"/>
</g>
</svg>
